<svg width="31" height="21" viewBox="0 0 31 21" fill="none" xmlns="http://www.w3.org/2000/svg">
<path d="M23.1199 0.233887H8.11772C6.88121 0.233651 5.66384 0.641109 4.57399 1.41998C3.48414 2.19886 2.55563 3.32498 1.87112 4.6981C1.18662 6.07121 0.767354 7.64871 0.65066 9.29016C0.533967 10.9316 0.723464 12.586 1.20228 14.1062C1.6811 15.6264 2.43438 16.9651 3.39506 18.0032C4.35574 19.0412 5.49401 19.7464 6.70853 20.056C7.92305 20.3656 9.17613 20.27 10.3562 19.7776C11.5363 19.2852 12.6068 18.4114 13.4723 17.2339H17.762C18.6275 18.4112 19.6978 19.285 20.8778 19.7774C22.0577 20.2698 23.3106 20.3656 24.525 20.0562C25.7395 19.7469 26.8777 19.0419 27.8384 18.0042C28.7991 16.9664 29.5524 15.6281 30.0315 14.1082C30.5105 12.5884 30.7003 10.9342 30.5839 9.29288C30.4676 7.65158 30.0487 6.07409 29.3646 4.70083C28.6805 3.32757 27.7524 2.20114 26.6629 1.42179C25.5734 0.642449 24.3563 0.234373 23.1199 0.233887ZM12.2424 10.9839C12.2424 11.1828 12.1832 11.3736 12.0777 11.5142C11.9722 11.6549 11.8291 11.7339 11.68 11.7339H9.24264V14.9839C9.24264 15.1828 9.18338 15.3736 9.0779 15.5142C8.97242 15.6549 8.82936 15.7339 8.68018 15.7339H7.55526C7.40609 15.7339 7.26303 15.6549 7.15755 15.5142C7.05206 15.3736 6.9928 15.1828 6.9928 14.9839V11.7339H4.55548C4.40631 11.7339 4.26324 11.6549 4.15776 11.5142C4.05228 11.3736 3.99302 11.1828 3.99302 10.9839V9.48389C3.99302 9.28497 4.05228 9.09421 4.15776 8.95356C4.26324 8.8129 4.40631 8.73389 4.55548 8.73389H6.9928V5.48389C6.9928 5.28497 7.05206 5.09421 7.15755 4.95356C7.26303 4.8129 7.40609 4.73389 7.55526 4.73389H8.68018C8.82936 4.73389 8.97242 4.8129 9.0779 4.95356C9.18338 5.09421 9.24264 5.28497 9.24264 5.48389V8.73389H11.68C11.8291 8.73389 11.9722 8.8129 12.0777 8.95356C12.1832 9.09421 12.2424 9.28497 12.2424 9.48389V10.9839ZM22.3667 15.7339C21.9959 15.7339 21.6334 15.5873 21.3251 15.3126C21.0168 15.0379 20.7765 14.6474 20.6346 14.1906C20.4927 13.7338 20.4555 13.2311 20.5279 12.7462C20.6002 12.2612 20.7788 11.8158 21.041 11.4661C21.3032 11.1165 21.6372 10.8784 22.0009 10.7819C22.3646 10.6855 22.7416 10.735 23.0842 10.9242C23.4268 11.1134 23.7196 11.4338 23.9256 11.845C24.1316 12.2561 24.2416 12.7394 24.2416 13.2339C24.2416 13.8969 24.044 14.5328 23.6924 15.0017C23.3408 15.4705 22.864 15.7339 22.3667 15.7339ZM25.3665 9.73389C24.9957 9.73389 24.6332 9.58727 24.3249 9.31256C24.0166 9.03786 23.7762 8.64741 23.6343 8.1906C23.4924 7.73378 23.4553 7.23111 23.5276 6.74616C23.6 6.26121 23.7786 5.81575 24.0408 5.46612C24.303 5.11649 24.637 4.87839 25.0007 4.78192C25.3644 4.68546 25.7414 4.73497 26.084 4.92419C26.4266 5.11341 26.7194 5.43384 26.9254 5.84496C27.1314 6.25608 27.2414 6.73943 27.2414 7.23389C27.2414 7.89693 27.0438 8.53281 26.6922 9.00165C26.3406 9.47049 25.8637 9.73389 25.3665 9.73389Z" fill="white"/>
</svg>
