<svg width="21" height="21" viewBox="0 0 21 21" fill="none" xmlns="http://www.w3.org/2000/svg">
<path d="M1.86719 18.8053C1.86719 19.5955 2.42578 20.2339 3.11719 20.2339H9.36719V13.091H1.86719V18.8053ZM11.8672 20.2339H18.1172C18.8086 20.2339 19.3672 19.5955 19.3672 18.8053V13.091H11.8672V20.2339ZM19.3672 5.94817H17.7227C17.9648 5.40799 18.1172 4.80978 18.1172 4.16246C18.1172 1.99728 16.5742 0.233887 14.6797 0.233887C13.0547 0.233887 12.0039 1.18478 10.6562 3.28299C9.30859 1.18478 8.25781 0.233887 6.63281 0.233887C4.73828 0.233887 3.19531 1.99728 3.19531 4.16246C3.19531 4.80978 3.34375 5.40799 3.58984 5.94817H1.86719C1.17578 5.94817 0.617188 6.58657 0.617188 7.37674V10.9482C0.617188 11.341 0.898438 11.6625 1.24219 11.6625H19.9922C20.3359 11.6625 20.6172 11.341 20.6172 10.9482V7.37674C20.6172 6.58657 20.0586 5.94817 19.3672 5.94817ZM6.62891 5.94817C5.76562 5.94817 5.06641 5.14907 5.06641 4.16246C5.06641 3.17585 5.76562 2.37674 6.62891 2.37674C7.40625 2.37674 7.98047 2.52407 9.99219 5.94817H6.62891ZM14.6797 5.94817H11.3164C13.3242 2.53299 13.8828 2.37674 14.6797 2.37674C15.543 2.37674 16.2422 3.17585 16.2422 4.16246C16.2422 5.14907 15.543 5.94817 14.6797 5.94817Z" fill="white"/>
</svg>
