<svg width="21" height="21" viewBox="0 0 21 21" fill="none" xmlns="http://www.w3.org/2000/svg">
<path d="M19.1172 0.233887H2.11719C1.71936 0.233887 1.33783 0.431431 1.05653 0.783062C0.775223 1.13469 0.617188 1.61161 0.617188 2.10889L0.617188 14.6089C0.617188 15.1062 0.775223 15.5831 1.05653 15.9347C1.33783 16.2863 1.71936 16.4839 2.11719 16.4839H9.61719V17.7339H4.11719C3.98458 17.7339 3.8574 17.7997 3.76363 17.9169C3.66987 18.0342 3.61719 18.1931 3.61719 18.3589V19.6089C3.61719 19.7746 3.66987 19.9336 3.76363 20.0508C3.8574 20.168 3.98458 20.2339 4.11719 20.2339H17.1172C17.2498 20.2339 17.377 20.168 17.4707 20.0508C17.5645 19.9336 17.6172 19.7746 17.6172 19.6089V18.3589C17.6172 18.1931 17.5645 18.0342 17.4707 17.9169C17.377 17.7997 17.2498 17.7339 17.1172 17.7339H11.6172V16.4839H19.1172C19.515 16.4839 19.8965 16.2863 20.1778 15.9347C20.4592 15.5831 20.6172 15.1062 20.6172 14.6089V2.10889C20.6172 1.61161 20.4592 1.13469 20.1778 0.783062C19.8965 0.431431 19.515 0.233887 19.1172 0.233887ZM18.6172 13.9839H2.61719V2.73389H18.6172V13.9839Z" fill="white"/>
</svg>
