<svg width="21" height="21" viewBox="0 0 21 21" fill="none" xmlns="http://www.w3.org/2000/svg">
<path d="M20.6172 10.215C20.6274 15.7247 16.1341 20.23 10.6244 20.2339C8.2448 20.2356 6.059 19.4061 4.3413 18.0197C3.89464 17.6592 3.86126 16.9898 4.26714 16.584L4.72146 16.1296C5.06859 15.7825 5.62279 15.7445 6.00738 16.0496C7.27291 17.0539 8.87448 17.6533 10.6172 17.6533C14.7182 17.6533 18.0365 14.3343 18.0365 10.2339C18.0365 6.13289 14.7175 2.81454 10.6172 2.81454C8.64887 2.81454 6.86117 3.57942 5.5338 4.82793L7.58033 6.87446C7.98678 7.28092 7.69892 7.97584 7.12416 7.97584H1.26235C0.906018 7.97584 0.617188 7.68701 0.617188 7.33067V1.46885C0.617188 0.89409 1.31211 0.606226 1.71856 1.01264L3.70936 3.00345C5.50464 1.28776 7.93783 0.233887 10.6172 0.233887C16.1337 0.233887 20.607 4.70083 20.6172 10.215ZM13.3223 13.3918L13.7184 12.8825C14.0466 12.4606 13.9706 11.8526 13.5487 11.5245L11.9075 10.248V6.04035C11.9075 5.50587 11.4742 5.07261 10.9398 5.07261H10.2946C9.76012 5.07261 9.32686 5.50587 9.32686 6.04035V11.5102L11.9643 13.5615C12.3862 13.8896 12.9942 13.8137 13.3223 13.3918Z" fill="white"/>
</svg>
