<svg width="26" height="20" viewBox="0 0 26 20" fill="none" xmlns="http://www.w3.org/2000/svg">
<path d="M20.4416 9.16663H5.58609C4.41402 9.16663 3.46387 9.91282 3.46387 10.8333V16.6666C3.46387 17.5871 4.41402 18.3333 5.58609 18.3333H20.4416C21.6137 18.3333 22.5639 17.5871 22.5639 16.6666V10.8333C22.5639 9.91282 21.6137 9.16663 20.4416 9.16663Z" stroke="white" stroke-linecap="round" stroke-linejoin="round"/>
<path d="M7.70801 9.16663V5.83329C7.70801 4.72822 8.26698 3.66842 9.26197 2.88701C10.257 2.10561 11.6064 1.66663 13.0136 1.66663C14.4207 1.66663 15.7702 2.10561 16.7652 2.88701C17.7601 3.66842 18.3191 4.72822 18.3191 5.83329V9.16663" stroke="white" stroke-linecap="round" stroke-linejoin="round"/>
</svg>
