<svg width="21" height="21" viewBox="0 0 21 21" fill="none" xmlns="http://www.w3.org/2000/svg">
<path d="M18.9547 12.0042L20.5961 3.87916C20.7146 3.29252 20.3183 2.73389 19.7835 2.73389H6.14524L5.82698 0.983496C5.74768 0.547207 5.40642 0.233887 5.01056 0.233887H1.45052C0.990278 0.233887 0.617188 0.653613 0.617188 1.17139V1.79639C0.617188 2.31416 0.990278 2.73389 1.45052 2.73389H3.87701L6.31618 16.1493C5.73264 16.5269 5.33941 17.2347 5.33941 18.0464C5.33941 19.2545 6.20997 20.2339 7.28386 20.2339C8.35775 20.2339 9.2283 19.2545 9.2283 18.0464C9.2283 17.4341 9.00445 16.881 8.64413 16.4839H15.9235C15.5633 16.881 15.3394 17.4341 15.3394 18.0464C15.3394 19.2545 16.21 20.2339 17.2839 20.2339C18.3577 20.2339 19.2283 19.2545 19.2283 18.0464C19.2283 17.1803 18.7808 16.4319 18.1318 16.0774L18.3234 15.1292C18.4419 14.5425 18.0455 13.9839 17.5108 13.9839H8.1907L7.96344 12.7339H18.1421C18.5312 12.7339 18.8685 12.431 18.9547 12.0042Z" fill="white"/>
</svg>
