<svg width="41" height="41" viewBox="0 0 41 41" fill="none" xmlns="http://www.w3.org/2000/svg">
<rect x="0.617188" y="0.233887" width="40" height="40" rx="10" fill="#219EBC"/>
<path d="M10.6172 12.0521C10.6172 11.0479 11.4312 10.2339 12.4354 10.2339H16.0717C17.0759 10.2339 17.8899 11.0479 17.8899 12.0521V15.6884C17.8899 16.6926 17.0759 17.5066 16.0717 17.5066H12.4354C11.4312 17.5066 10.6172 16.6926 10.6172 15.6884V12.0521Z" fill="white"/>
<path d="M23.3445 12.0521C23.3445 11.0479 24.1585 10.2339 25.1626 10.2339H28.799C29.8032 10.2339 30.6172 11.0479 30.6172 12.0521V15.6884C30.6172 16.6926 29.8032 17.5066 28.799 17.5066H25.1626C24.1585 17.5066 23.3445 16.6926 23.3445 15.6884V12.0521Z" fill="white"/>
<path d="M23.3445 24.7793C23.3445 23.7752 24.1585 22.9612 25.1626 22.9612H28.799C29.8032 22.9612 30.6172 23.7752 30.6172 24.7793V28.4157C30.6172 29.4199 29.8032 30.2339 28.799 30.2339H25.1626C24.1585 30.2339 23.3445 29.4199 23.3445 28.4157V24.7793Z" fill="white"/>
<path d="M10.6172 24.7793C10.6172 23.7752 11.4312 22.9612 12.4354 22.9612H16.0717C17.0759 22.9612 17.8899 23.7752 17.8899 24.7793V28.4157C17.8899 29.4199 17.0759 30.2339 16.0717 30.2339H12.4354C11.4312 30.2339 10.6172 29.4199 10.6172 28.4157V24.7793Z" fill="white"/>
</svg>
